<?xml version="1.0" encoding="utf-8"?>
<!-- Generator: Adobe Illustrator 16.0.0, SVG Export Plug-In . SVG Version: 6.00 Build 0)  -->
<!DOCTYPE svg PUBLIC "-//W3C//DTD SVG 1.1//EN" "http://www.w3.org/Graphics/SVG/1.1/DTD/svg11.dtd" [
	<!ENTITY ns_flows "http://ns.adobe.com/Flows/1.0/">
	<!ENTITY ns_extend "http://ns.adobe.com/Extensibility/1.0/">
	<!ENTITY ns_ai "http://ns.adobe.com/AdobeIllustrator/10.0/">
	<!ENTITY ns_graphs "http://ns.adobe.com/Graphs/1.0/">
	<!ENTITY ns_vars "http://ns.adobe.com/Variables/1.0/">
	<!ENTITY ns_imrep "http://ns.adobe.com/ImageReplacement/1.0/">
	<!ENTITY ns_sfw "http://ns.adobe.com/SaveForWeb/1.0/">
	<!ENTITY ns_custom "http://ns.adobe.com/GenericCustomNamespace/1.0/">
	<!ENTITY ns_adobe_xpath "http://ns.adobe.com/XPath/1.0/">
]>
<svg version="1.1" id="Layer_1" xmlns:x="&ns_extend;" xmlns:i="&ns_ai;" xmlns:graph="&ns_graphs;"
	 xmlns="http://www.w3.org/2000/svg" xmlns:xlink="http://www.w3.org/1999/xlink" xmlns:a="http://ns.adobe.com/AdobeSVGViewerExtensions/3.0/"
	 x="0px" y="0px" width="225px" height="57.576px" viewBox="0 0 225 57.576" enable-background="new 0 0 225 57.576"
	 xml:space="preserve">
<metadata>
	<sfw  xmlns="&ns_sfw;">
		<slices></slices>
		<sliceSourceBounds  width="221.319" height="51.593" y="370.555" x="195.098" bottomLeftOrigin="true"></sliceSourceBounds>
	</sfw>
</metadata>
<g>
	<g>
		<path fill="#CCA33E" d="M52.622,21.595c-1.481,0-2.398-0.419-2.737-0.612c-0.306-0.354-0.515-1.513-0.515-2.608
			c0.113-0.209,0.483-0.226,0.612-0.048c0.322,1.046,1.4,2.527,2.769,2.527c1.191,0,1.738-0.821,1.738-1.626
			c0-1.304-1.223-2.077-2.189-2.56c-1.159-0.58-2.431-1.545-2.431-3.139c-0.016-1.819,1.401-3.075,3.735-3.075
			c0.531,0,1.191,0.064,1.835,0.258c0.209,0.064,0.354,0.096,0.547,0.128c0.129,0.354,0.29,1.224,0.29,2.302
			c-0.081,0.193-0.483,0.209-0.628,0.048c-0.273-0.821-0.966-1.996-2.125-1.996c-1.062,0-1.642,0.692-1.642,1.497
			c0,0.74,0.66,1.417,1.465,1.835l1.062,0.563c0.998,0.531,2.27,1.465,2.27,3.236C56.679,20.307,55.053,21.595,52.622,21.595z"/>
		<path fill="#CCA33E" d="M60.591,13.32c0-1.626-0.032-1.819-0.708-1.9l-0.499-0.064c-0.145-0.08-0.145-0.435,0.032-0.547
			c1.062-0.08,2.318-0.145,3.718-0.145c1.369,0,2.27,0.161,2.946,0.418c0.982,0.37,1.964,1.224,1.964,2.785
			c0,2.64-2.656,3.027-3.509,3.027c-0.193,0-0.338,0-0.515-0.016c-0.129-0.081-0.161-0.338-0.048-0.435
			c1.336-0.419,1.61-1.369,1.61-2.56c0-1.191-0.612-2.479-2.061-2.479c-0.596,0-0.628,0.177-0.628,0.821v6.793
			c0,1.498,0.097,1.626,0.821,1.739l0.515,0.081c0.177,0.081,0.177,0.451,0,0.547c-0.901-0.032-1.69-0.048-2.463-0.048
			c-0.772,0-1.545,0.016-2.415,0.048c-0.177-0.097-0.209-0.467-0.032-0.547l0.451-0.081c0.725-0.129,0.821-0.241,0.821-1.739V13.32z
			"/>
		<path fill="#CCA33E" d="M71.877,13.32c0-1.61-0.032-1.787-0.708-1.884l-0.435-0.064c-0.161-0.08-0.161-0.483,0.032-0.563
			c1.207-0.08,2.463-0.145,3.992-0.145c1.368,0,2.543,0.209,3.155,0.58c0.934,0.547,1.417,1.352,1.417,2.382
			c0,1.433-0.966,2.044-1.707,2.415c-0.161,0.081-0.161,0.177-0.081,0.354c1.062,2.157,1.723,3.364,2.496,4.024
			c0.418,0.338,0.837,0.435,1.079,0.451c0.145,0.081,0.145,0.322,0.064,0.418c-0.257,0.113-0.772,0.145-1.271,0.145
			c-1.481,0-2.415-0.531-3.123-1.69c-0.515-0.853-0.885-1.642-1.256-2.495c-0.193-0.435-0.451-0.563-0.853-0.563
			c-0.563,0-0.596,0.032-0.596,0.354v1.98c0,1.481,0.097,1.594,0.821,1.723l0.435,0.081c0.112,0.081,0.112,0.467,0,0.562
			c-0.854-0.032-1.594-0.048-2.367-0.048c-0.805,0-1.513,0.016-2.35,0.048c-0.129-0.097-0.129-0.483,0-0.562l0.435-0.081
			c0.725-0.129,0.821-0.241,0.821-1.723V13.32z M74.083,15.365c0,0.562,0.048,0.611,0.998,0.611c0.58,0,0.917-0.145,1.224-0.451
			c0.273-0.273,0.58-0.789,0.58-1.738c0-1.449-0.854-2.383-2.109-2.383c-0.66,0-0.692,0.048-0.692,0.821L74.083,15.365
			L74.083,15.365z"/>
		<path fill="#CCA33E" d="M86.48,18.987c0,1.513,0.097,1.625,0.837,1.754l0.451,0.081c0.129,0.097,0.113,0.467-0.016,0.562
			c-0.87-0.032-1.658-0.048-2.415-0.048c-0.772,0-1.578,0.016-2.447,0.048c-0.129-0.097-0.129-0.467,0-0.562l0.451-0.081
			c0.741-0.129,0.837-0.241,0.837-1.754v-5.924c0-1.513-0.096-1.626-0.837-1.755l-0.451-0.08c-0.129-0.097-0.129-0.467,0-0.563
			c0.869,0.032,1.674,0.048,2.447,0.048c0.757,0,1.562-0.016,2.431-0.048c0.129,0.097,0.129,0.467,0,0.563l-0.451,0.08
			c-0.74,0.129-0.837,0.242-0.837,1.755V18.987z"/>
		<path fill="#CCA33E" d="M100.422,18.6c0,1.046,0,2.061,0.032,2.592c-0.113,0.193-0.563,0.371-0.95,0.371
			c-0.016,0-0.547-0.821-1.304-1.755l-3.719-4.604c-0.934-1.143-1.465-1.819-1.755-2.061c-0.08,0.161-0.08,0.435-0.08,1.03v3.123
			c0,1.304,0.064,2.511,0.241,2.946c0.145,0.338,0.516,0.451,0.934,0.515l0.451,0.064c0.129,0.129,0.097,0.467,0,0.563
			c-0.869-0.032-1.514-0.048-2.157-0.048c-0.596,0-1.191,0.016-1.803,0.048c-0.097-0.097-0.129-0.435,0-0.563l0.273-0.048
			c0.435-0.081,0.757-0.193,0.885-0.531c0.178-0.435,0.226-1.642,0.226-2.946v-4.089c0-0.885-0.016-1.143-0.112-1.369
			c-0.129-0.273-0.354-0.467-0.918-0.547l-0.45-0.064c-0.113-0.129-0.097-0.515,0.064-0.563c0.756,0.032,1.562,0.048,2.222,0.048
			c0.547,0,1.014-0.016,1.352-0.048c0.161,0.724,1.208,1.948,2.656,3.67l1.353,1.593c0.708,0.837,1.175,1.401,1.545,1.771
			c0.064-0.161,0.064-0.435,0.064-0.725v-2.221c0-1.304-0.064-2.511-0.241-2.946c-0.145-0.338-0.499-0.451-0.934-0.515l-0.435-0.064
			c-0.129-0.129-0.097-0.467,0-0.563c0.869,0.032,1.497,0.048,2.157,0.048c0.596,0,1.175-0.016,1.803-0.048
			c0.097,0.097,0.129,0.435,0,0.563l-0.29,0.048c-0.418,0.064-0.725,0.193-0.869,0.531c-0.177,0.435-0.241,1.642-0.241,2.946V18.6z"
			/>
		<path fill="#CCA33E" d="M114.251,19.518c0,0.676,0.032,0.998,0.338,1.062c0.063,0.064,0.05,0.338-0.048,0.387
			c-0.273,0.048-0.691,0.097-1.127,0.241c-0.563,0.177-1.948,0.387-2.85,0.387c-1.095,0-2.028-0.113-3.171-0.562
			c-1.884-0.757-3.172-2.543-3.172-4.862c0-2.012,0.901-3.783,2.834-4.862c1.095-0.595,2.398-0.853,3.767-0.853
			c1.787,0,2.672,0.386,3.188,0.386c0.049,0.483,0.064,1.61,0.227,2.592c-0.064,0.177-0.5,0.193-0.612,0.032
			c-0.515-1.513-1.529-2.27-3.026-2.27c-2.56,0-3.799,2.125-3.799,4.668c0,2.302,0.789,3.67,1.835,4.378
			c0.772,0.515,1.61,0.612,2.205,0.612c0.918,0,1.111-0.177,1.111-1.224v-1.014c0-0.869-0.097-0.966-0.869-1.079l-0.709-0.096
			c-0.177-0.097-0.177-0.467,0-0.563c1.144,0.032,1.933,0.048,2.721,0.048c0.773,0,1.562-0.016,2.109-0.048
			c0.129,0.096,0.129,0.467,0,0.563l-0.37,0.064c-0.482,0.081-0.58,0.242-0.58,1.111L114.251,19.518L114.251,19.518z"/>
		<path fill="#CCA33E" d="M121.111,11.919c0-0.386,0-0.467-0.387-0.467h-0.998c-1.177,0-1.515,0.644-1.996,1.819
			c-0.193,0.096-0.5,0.064-0.597-0.145c0.339-1.111,0.418-2.109,0.531-2.737c0.063-0.048,0.146-0.081,0.226-0.081
			s0.16,0.016,0.226,0.064c0.081,0.274,0.129,0.338,1.353,0.338h5.988c1.062,0,1.305-0.016,1.449-0.354
			c0.064-0.032,0.111-0.048,0.209-0.048c0.097,0,0.209,0.064,0.24,0.113c-0.16,0.547-0.272,1.852-0.24,2.769
			c-0.08,0.145-0.516,0.177-0.596,0.048c-0.273-1.03-0.5-1.787-1.707-1.787h-0.965c-0.388,0-0.436,0.048-0.436,0.467v7.099
			c0,1.498,0.097,1.626,0.82,1.723l0.645,0.081c0.111,0.097,0.111,0.467,0,0.563c-1.047-0.032-1.852-0.048-2.576-0.048
			c-0.771,0-1.609,0.016-2.736,0.048c-0.129-0.097-0.129-0.467,0-0.563l0.726-0.081c0.726-0.081,0.821-0.225,0.821-1.723V11.919
			L121.111,11.919z"/>
		<path fill="#CCA33E" d="M133.137,18.987c0,1.513,0.098,1.625,0.838,1.754l0.45,0.081c0.13,0.097,0.113,0.467-0.016,0.562
			c-0.869-0.032-1.658-0.048-2.415-0.048c-0.771,0-1.577,0.016-2.447,0.048c-0.128-0.097-0.128-0.467,0-0.562l0.451-0.081
			c0.74-0.129,0.837-0.241,0.837-1.754v-5.924c0-1.513-0.097-1.626-0.837-1.755l-0.451-0.08c-0.128-0.097-0.128-0.467,0-0.563
			c0.87,0.032,1.676,0.048,2.447,0.048c0.757,0,1.562-0.016,2.431-0.048c0.13,0.097,0.13,0.467,0,0.563l-0.45,0.08
			c-0.74,0.129-0.838,0.242-0.838,1.755V18.987z"/>
		<path fill="#CCA33E" d="M138.418,13.32c0-1.529-0.031-1.835-0.771-1.916l-0.307-0.032c-0.16-0.08-0.16-0.547,0.032-0.563
			c1.353-0.08,2.606-0.145,4.313-0.145c1.319,0,2.641,0.128,3.75,0.531c2.109,0.756,3.27,2.656,3.27,4.668
			c0,2.157-1.03,3.896-2.883,4.813c-1.094,0.547-2.414,0.757-4.072,0.757c-0.756,0-1.561-0.097-2.141-0.097
			c-0.772,0-1.594,0.016-2.512,0.048c-0.129-0.097-0.129-0.483,0-0.563l0.5-0.081c0.723-0.113,0.819-0.241,0.819-1.723
			L138.418,13.32L138.418,13.32z M140.721,18.423c0,0.885,0.031,1.465,0.321,1.803c0.29,0.322,0.757,0.467,1.336,0.467
			c2.785,0,3.735-2.479,3.735-4.668c0-2.897-1.529-4.62-4.443-4.62c-0.436,0-0.74,0.081-0.837,0.209
			c-0.097,0.128-0.112,0.435-0.112,0.934V18.423z"/>
		<path fill="#CCA33E" d="M155.098,14.897c0,0.451,0.016,0.483,0.45,0.483h1.11c0.838,0,1.029-0.113,1.191-0.886l0.08-0.402
			c0.112-0.129,0.516-0.129,0.596,0.016c-0.031,0.515-0.049,1.095-0.049,1.707s0.018,1.191,0.049,1.706
			c-0.08,0.145-0.482,0.161-0.596,0.016l-0.08-0.402c-0.162-0.772-0.354-0.901-1.191-0.901h-1.11c-0.435,0-0.45,0.016-0.45,0.499
			v1.916c0,0.741,0.063,1.256,0.258,1.529c0.209,0.29,0.516,0.418,1.689,0.418c1.4,0,1.948-0.048,2.833-1.867
			c0.129-0.177,0.531-0.113,0.597,0.081c-0.064,0.837-0.451,2.141-0.677,2.576c-0.854-0.032-2.397-0.048-3.719-0.048h-2.093
			c-0.772,0-1.562,0.016-2.77,0.048c-0.129-0.097-0.129-0.483,0-0.562l0.758-0.113c0.724-0.113,0.819-0.209,0.819-1.69v-6.004
			c0-1.465-0.097-1.562-0.819-1.707l-0.404-0.08c-0.145-0.097-0.127-0.467,0.033-0.563c0.756,0.032,1.545,0.048,2.317,0.048h3.413
			c1.029,0,1.947-0.016,2.157-0.048c0.016,0.257,0.129,1.417,0.209,2.495c-0.064,0.177-0.435,0.209-0.597,0.064
			c-0.177-0.563-0.401-1.046-0.61-1.272c-0.308-0.306-0.789-0.499-1.578-0.499h-1.288c-0.531,0-0.531,0.032-0.531,0.628v2.815
			H155.098z"/>
		<path fill="#CCA33E" d="M171.771,13.32c0-1.626-0.033-1.819-0.709-1.9l-0.498-0.064c-0.146-0.08-0.146-0.435,0.031-0.547
			c1.062-0.08,2.318-0.145,3.719-0.145c1.369,0,2.271,0.161,2.945,0.418c0.982,0.37,1.965,1.224,1.965,2.785
			c0,2.64-2.656,3.027-3.51,3.027c-0.193,0-0.338,0-0.516-0.016c-0.129-0.081-0.16-0.338-0.049-0.435
			c1.336-0.419,1.609-1.369,1.609-2.56c0-1.191-0.611-2.479-2.061-2.479c-0.596,0-0.629,0.177-0.629,0.821v6.793
			c0,1.498,0.098,1.626,0.822,1.739l0.516,0.081c0.177,0.081,0.177,0.451,0,0.547c-0.901-0.032-1.69-0.048-2.463-0.048
			c-0.773,0-1.547,0.016-2.416,0.048c-0.176-0.097-0.209-0.467-0.031-0.547l0.451-0.081c0.724-0.129,0.82-0.241,0.82-1.739V13.32
			H171.771z"/>
		<path fill="#CCA33E" d="M183.059,13.32c0-1.61-0.033-1.787-0.709-1.884l-0.435-0.064c-0.161-0.08-0.161-0.483,0.032-0.563
			c1.207-0.08,2.463-0.145,3.992-0.145c1.367,0,2.543,0.209,3.154,0.58c0.934,0.547,1.416,1.352,1.416,2.382
			c0,1.433-0.966,2.044-1.705,2.415c-0.162,0.081-0.162,0.177-0.08,0.354c1.062,2.157,1.723,3.364,2.494,4.024
			c0.418,0.338,0.838,0.435,1.078,0.451c0.146,0.081,0.146,0.322,0.064,0.418c-0.258,0.113-0.772,0.145-1.271,0.145
			c-1.48,0-2.415-0.531-3.123-1.69c-0.516-0.853-0.886-1.642-1.256-2.495c-0.193-0.435-0.449-0.563-0.854-0.563
			c-0.562,0-0.596,0.032-0.596,0.354v1.98c0,1.481,0.096,1.594,0.82,1.723l0.436,0.081c0.112,0.081,0.112,0.467,0,0.562
			c-0.854-0.032-1.595-0.048-2.367-0.048c-0.805,0-1.512,0.016-2.351,0.048c-0.128-0.097-0.128-0.483,0-0.562l0.437-0.081
			c0.724-0.129,0.82-0.241,0.82-1.723V13.32H183.059z M185.264,15.365c0,0.562,0.049,0.611,0.998,0.611
			c0.579,0,0.918-0.145,1.223-0.451c0.274-0.273,0.58-0.789,0.58-1.738c0-1.449-0.854-2.383-2.108-2.383
			c-0.659,0-0.69,0.048-0.69,0.821v3.14H185.264z"/>
		<path fill="#CCA33E" d="M197.66,14.897c0,0.451,0.017,0.483,0.451,0.483h1.109c0.838,0,1.03-0.113,1.191-0.886l0.081-0.402
			c0.112-0.129,0.515-0.129,0.596,0.016c-0.032,0.515-0.049,1.095-0.049,1.707s0.017,1.191,0.049,1.706
			c-0.081,0.145-0.483,0.161-0.596,0.016l-0.081-0.402c-0.161-0.772-0.354-0.901-1.191-0.901h-1.109
			c-0.436,0-0.451,0.016-0.451,0.499v1.916c0,0.741,0.064,1.256,0.258,1.529c0.21,0.29,0.516,0.418,1.689,0.418
			c1.4,0,1.949-0.048,2.834-1.867c0.129-0.177,0.531-0.113,0.596,0.081c-0.064,0.837-0.45,2.141-0.676,2.576
			c-0.854-0.032-2.398-0.048-3.719-0.048h-2.094c-0.771,0-1.562,0.016-2.77,0.048c-0.129-0.097-0.129-0.483,0-0.562l0.758-0.113
			c0.725-0.113,0.82-0.209,0.82-1.69v-6.004c0-1.465-0.098-1.562-0.82-1.707l-0.403-0.08c-0.146-0.097-0.128-0.467,0.032-0.563
			c0.757,0.032,1.546,0.048,2.318,0.048h3.412c1.03,0,1.947-0.016,2.158-0.048c0.016,0.257,0.129,1.417,0.209,2.495
			c-0.064,0.177-0.436,0.209-0.597,0.064c-0.177-0.563-0.401-1.046-0.61-1.272c-0.308-0.306-0.789-0.499-1.578-0.499h-1.289
			c-0.53,0-0.53,0.032-0.53,0.628L197.66,14.897L197.66,14.897z"/>
		<path fill="#CCA33E" d="M208.303,21.595c-1.48,0-2.398-0.419-2.736-0.612c-0.307-0.354-0.516-1.513-0.516-2.608
			c0.113-0.209,0.483-0.226,0.612-0.048c0.321,1.046,1.399,2.527,2.769,2.527c1.191,0,1.738-0.821,1.738-1.626
			c0-1.304-1.225-2.077-2.189-2.56c-1.158-0.58-2.431-1.545-2.431-3.139c-0.016-1.819,1.4-3.075,3.735-3.075
			c0.531,0,1.189,0.064,1.835,0.258c0.209,0.064,0.354,0.096,0.547,0.128c0.129,0.354,0.29,1.224,0.29,2.302
			c-0.08,0.193-0.482,0.209-0.628,0.048c-0.272-0.821-0.966-1.996-2.125-1.996c-1.062,0-1.642,0.692-1.642,1.497
			c0,0.74,0.66,1.417,1.465,1.835l1.062,0.563c0.998,0.531,2.271,1.465,2.271,3.236C212.359,20.307,210.732,21.595,208.303,21.595z"
			/>
		<path fill="#CCA33E" d="M218.059,21.595c-1.48,0-2.397-0.419-2.735-0.612c-0.308-0.354-0.517-1.513-0.517-2.608
			c0.113-0.209,0.483-0.226,0.612-0.048c0.321,1.046,1.399,2.527,2.769,2.527c1.191,0,1.738-0.821,1.738-1.626
			c0-1.304-1.224-2.077-2.189-2.56c-1.158-0.58-2.43-1.545-2.43-3.139c-0.017-1.819,1.399-3.075,3.734-3.075
			c0.531,0,1.189,0.064,1.835,0.258c0.209,0.064,0.354,0.096,0.547,0.128c0.129,0.354,0.29,1.224,0.29,2.302
			c-0.08,0.193-0.482,0.209-0.628,0.048c-0.272-0.821-0.966-1.996-2.125-1.996c-1.062,0-1.642,0.692-1.642,1.497
			c0,0.74,0.66,1.417,1.465,1.835l1.062,0.563c0.997,0.531,2.27,1.465,2.27,3.236C222.115,20.307,220.488,21.595,218.059,21.595z"/>
	</g>
	<g>
		<path fill="#CCA33E" d="M54.49,37.989c-1.137,2.833-2.753,4.578-2.897,4.578c-0.256,0-0.705-0.018-1.137-0.08
			c-0.048-1.617,0.016-4.723,0.064-5.924l-1.232,0.16c-0.032-0.24-0.064-0.464-0.08-0.672c0.977-0.24,1.841-0.479,1.969-0.479
			c0.112,0,0.4,0.239,0.496,0.433c-0.08,1.889-0.192,4.546-0.208,5.635c0,0.063,0.064,0.111,0.128,0.031
			c0.304-0.385,0.784-1.057,1.264-1.855c0.625-1.073,1.329-2.594,1.601-3.729c0.288-0.112,0.705-0.146,1.009-0.129
			c0.032,1.856,0.064,4.69,0.112,5.729c0,0.08,0.08,0.098,0.128,0.032c0.368-0.433,0.769-0.929,1.345-1.937
			c0.56-0.961,1.216-2.529,1.216-3.186c0-0.033-0.016-0.129-0.112-0.129l-0.96,0.08c-0.032-0.225-0.032-0.447-0.048-0.673
			c0.72-0.11,1.617-0.271,1.745-0.271c0.112,0,0.496,0.399,0.512,0.512c-0.016,0.992-0.944,2.912-1.697,4.113
			c-0.8,1.266-1.857,2.338-1.985,2.338c-0.224,0-0.72-0.018-1.104-0.08c-0.048-1.057-0.08-2.723-0.032-4.498H54.49z"/>
		<path fill="#CCA33E" d="M60.921,32.403c-0.016-0.226-0.032-0.448-0.032-0.656c1.152-0.208,2.225-0.496,2.337-0.496
			c0.096,0,0.336,0.191,0.432,0.352c-0.24,0.961-1.136,4.482-1.521,5.986l0.096,0.049c1.44-1.648,2.625-2.05,3.201-2.064
			c0.336,0.048,0.832,0.32,1.072,0.832c0.064,0.145,0.096,0.32,0.096,0.496c0,0.705-0.544,2.722-1.281,4.803
			c-0.032,0.048,0,0.096,0.064,0.096c0.176,0,0.625-0.08,1.121-0.208c0.048,0.224,0.08,0.448,0.112,0.673
			c-0.656,0.225-1.601,0.336-2.113,0.336c-0.08,0-0.368-0.271-0.416-0.479c0.288-0.833,0.8-2.465,1.024-3.329
			c0.112-0.417,0.304-1.169,0.304-1.585c0-0.306-0.16-0.576-0.512-0.576c-0.977,0-2.801,1.696-3.041,2.625
			c-0.176,0.624-0.656,2.593-0.8,3.201c-0.368,0-0.752,0-1.121,0C60.295,41,61.864,34.39,62.344,32.31L60.921,32.403z"/>
		<path fill="#CCA33E" d="M69.433,36.836c0.8-0.912,1.569-1.265,2.401-1.265c1.136,0,1.729,0.896,1.745,1.695
			c-0.08,0.528-0.417,1.201-0.88,1.457c-0.88,0.465-1.985,0.608-3.377,0.608c-0.112,0.384-0.208,0.928-0.208,1.231
			c0,0.752,0.4,1.186,1.088,1.186c0.64,0,1.648-0.354,2.529-0.85c0.096,0.209,0.176,0.416,0.256,0.625
			c-0.913,0.561-2.097,1.088-3.201,1.088c-0.849,0-1.873-0.641-1.873-1.889C67.912,39.75,68.36,38.037,69.433,36.836z
			 M70.265,37.028c-0.256,0.353-0.56,0.832-0.784,1.617c0.864,0.016,1.697-0.112,2.273-0.4c0.368-0.176,0.656-0.432,0.656-0.88
			c0-0.513-0.272-1.024-0.896-1.024C71.001,36.34,70.601,36.612,70.265,37.028z"/>
		<path fill="#CCA33E" d="M74.712,36.661c-0.032-0.225-0.032-0.465-0.032-0.674c1.024-0.159,1.921-0.415,2.001-0.415
			c0.096,0,0.336,0.224,0.416,0.368c-0.112,0.433-0.256,1.057-0.464,1.983l0.112,0.032c0.944-1.425,1.937-2.385,2.513-2.385
			c0.336,0,0.624,0.128,0.784,0.224c0,0.399-0.352,1.121-0.528,1.218c-0.112-0.049-0.448-0.16-0.656-0.16
			c-0.64,0-2.193,1.76-2.545,3.121c-0.128,0.479-0.432,1.84-0.576,2.48c-0.368,0-0.736,0-1.104,0
			c0.304-1.312,0.944-4.113,1.329-5.923L74.712,36.661z"/>
		<path fill="#CCA33E" d="M81.432,36.836c0.8-0.912,1.569-1.265,2.401-1.265c1.136,0,1.729,0.896,1.745,1.695
			c-0.08,0.528-0.417,1.201-0.88,1.457c-0.88,0.465-1.985,0.608-3.377,0.608c-0.112,0.384-0.208,0.928-0.208,1.231
			c0,0.752,0.4,1.186,1.088,1.186c0.64,0,1.648-0.354,2.529-0.85c0.096,0.209,0.176,0.416,0.256,0.625
			c-0.913,0.561-2.097,1.088-3.201,1.088c-0.849,0-1.873-0.641-1.873-1.889C79.912,39.75,80.36,38.037,81.432,36.836z
			 M82.265,37.028c-0.256,0.353-0.56,0.832-0.784,1.617c0.864,0.016,1.697-0.112,2.273-0.4c0.368-0.176,0.656-0.432,0.656-0.88
			c0-0.513-0.272-1.024-0.896-1.024C83.001,36.34,82.601,36.612,82.265,37.028z"/>
		<path fill="#CCA33E" d="M94.714,37.989c-1.137,2.833-2.753,4.578-2.897,4.578c-0.256,0-0.704-0.018-1.136-0.08
			c-0.048-1.617,0.016-4.723,0.064-5.924l-1.232,0.16c-0.032-0.24-0.064-0.464-0.08-0.672c0.977-0.24,1.841-0.479,1.969-0.479
			c0.112,0,0.4,0.239,0.496,0.433c-0.08,1.889-0.191,4.546-0.208,5.635c0,0.063,0.064,0.111,0.128,0.031
			c0.305-0.385,0.784-1.057,1.265-1.855c0.624-1.073,1.329-2.594,1.601-3.729c0.288-0.112,0.704-0.146,1.009-0.129
			c0.032,1.856,0.063,4.69,0.112,5.729c0,0.08,0.08,0.098,0.128,0.032c0.368-0.433,0.768-0.929,1.344-1.937
			c0.561-0.961,1.217-2.529,1.217-3.186c0-0.033-0.016-0.129-0.112-0.129l-0.96,0.08c-0.032-0.225-0.032-0.447-0.048-0.673
			c0.72-0.11,1.616-0.271,1.744-0.271c0.112,0,0.497,0.399,0.513,0.512c-0.016,0.992-0.944,2.912-1.696,4.113
			c-0.801,1.266-1.857,2.338-1.985,2.338c-0.224,0-0.721-0.018-1.104-0.08c-0.048-1.057-0.08-2.723-0.032-4.498H94.714z"/>
		<path fill="#CCA33E" d="M101.705,36.836c0.8-0.912,1.568-1.265,2.4-1.265c1.137,0,1.729,0.896,1.745,1.695
			c-0.08,0.528-0.416,1.201-0.881,1.457c-0.88,0.465-1.984,0.608-3.377,0.608c-0.112,0.384-0.208,0.928-0.208,1.231
			c0,0.752,0.4,1.186,1.088,1.186c0.641,0,1.649-0.354,2.529-0.85c0.097,0.209,0.176,0.416,0.256,0.625
			c-0.912,0.561-2.097,1.088-3.201,1.088c-0.848,0-1.872-0.641-1.872-1.889C100.185,39.75,100.633,38.037,101.705,36.836z
			 M102.537,37.028c-0.256,0.353-0.561,0.832-0.784,1.617c0.864,0.016,1.696-0.112,2.272-0.4c0.368-0.176,0.656-0.432,0.656-0.88
			c0-0.513-0.271-1.024-0.896-1.024C103.273,36.34,102.873,36.612,102.537,37.028z"/>
		<path fill="#CCA33E" d="M114.059,40.55c-1.474,1.633-2.498,2.098-3.024,2.098c-0.353-0.064-0.881-0.385-1.121-0.834
			c-0.096-0.176-0.144-0.383-0.144-0.64c0-0.575,0.191-1.553,0.512-2.401c0.48-1.312,1.601-3.2,3.122-3.2
			c0.607,0,1.152,0.288,1.584,0.784h0.097l0.353-0.85c0.289,0.08,0.592,0.178,0.881,0.271c-0.433,1.44-1.137,4.259-1.488,5.924
			c0,0.048,0.031,0.096,0.08,0.096c0.128,0,0.561-0.111,1.089-0.288c0.063,0.224,0.11,0.448,0.144,0.673
			c-0.672,0.256-1.473,0.416-1.969,0.416c-0.048,0-0.336-0.209-0.416-0.399c0.049-0.272,0.225-0.929,0.4-1.617L114.059,40.55z
			 M111.561,38.373c-0.368,0.864-0.607,1.873-0.607,2.642c0,0.465,0.239,0.704,0.512,0.704c0.752,0,2.546-1.761,2.851-2.577
			c0.096-0.287,0.384-1.439,0.496-1.92c-0.354-0.513-0.85-0.785-1.394-0.785C112.602,36.437,111.929,37.478,111.561,38.373z"/>
		<path fill="#CCA33E" d="M118.072,32.371c-0.016-0.24-0.032-0.464-0.032-0.688c1.409-0.16,2.289-0.432,2.433-0.432
			c0.112,0,0.32,0.191,0.418,0.352c-0.722,2.961-1.986,8.42-2.369,10.102c0,0.048,0,0.096,0.062,0.096
			c0.225,0,0.785-0.08,1.377-0.24c0.048,0.24,0.08,0.465,0.096,0.705c-0.783,0.239-1.664,0.336-2.225,0.336
			c-0.064,0-0.384-0.24-0.512-0.479c0.398-1.617,1.791-7.731,2.271-9.828L118.072,32.371z"/>
		<path fill="#CCA33E" d="M126.457,37.989c-1.137,2.833-2.753,4.578-2.896,4.578c-0.256,0-0.705-0.018-1.137-0.08
			c-0.049-1.617,0.016-4.723,0.062-5.924l-1.231,0.16c-0.032-0.24-0.063-0.464-0.08-0.672c0.978-0.24,1.841-0.479,1.97-0.479
			c0.111,0,0.399,0.239,0.496,0.433c-0.08,1.889-0.191,4.546-0.209,5.635c0,0.063,0.064,0.111,0.129,0.031
			c0.305-0.385,0.783-1.057,1.265-1.855c0.624-1.073,1.329-2.594,1.601-3.729c0.288-0.112,0.704-0.146,1.01-0.129
			c0.031,1.856,0.062,4.69,0.111,5.729c0,0.08,0.079,0.098,0.128,0.032c0.368-0.433,0.769-0.929,1.345-1.937
			c0.561-0.961,1.217-2.529,1.217-3.186c0-0.033-0.016-0.129-0.112-0.129l-0.96,0.08c-0.032-0.225-0.032-0.447-0.048-0.673
			c0.72-0.11,1.616-0.271,1.743-0.271c0.113,0,0.498,0.399,0.514,0.512c-0.016,0.992-0.943,2.912-1.697,4.113
			c-0.8,1.266-1.855,2.338-1.984,2.338c-0.224,0-0.721-0.018-1.104-0.08c-0.048-1.057-0.08-2.723-0.031-4.498H126.457z"/>
		<path fill="#CCA33E" d="M136.137,40.55c-1.473,1.633-2.496,2.098-3.025,2.098c-0.352-0.064-0.879-0.385-1.119-0.834
			c-0.096-0.176-0.145-0.383-0.145-0.64c0-0.575,0.191-1.553,0.512-2.401c0.48-1.312,1.602-3.2,3.121-3.2
			c0.608,0,1.152,0.288,1.586,0.784h0.096l0.354-0.85c0.287,0.08,0.592,0.178,0.879,0.271c-0.432,1.44-1.136,4.259-1.487,5.924
			c0,0.048,0.032,0.096,0.079,0.096c0.129,0,0.562-0.111,1.09-0.288c0.062,0.224,0.111,0.448,0.145,0.673
			c-0.673,0.256-1.474,0.416-1.97,0.416c-0.048,0-0.336-0.209-0.416-0.399c0.048-0.272,0.224-0.929,0.399-1.617L136.137,40.55z
			 M133.641,38.373c-0.369,0.864-0.607,1.873-0.607,2.642c0,0.465,0.238,0.704,0.512,0.704c0.752,0,2.545-1.761,2.85-2.577
			c0.097-0.287,0.385-1.439,0.496-1.92c-0.353-0.513-0.849-0.785-1.393-0.785C134.682,36.437,134.008,37.478,133.641,38.373z"/>
		<path fill="#CCA33E" d="M139.128,36.821c-0.032-0.24-0.063-0.465-0.097-0.674c1.057-0.287,1.855-0.575,1.953-0.575
			c0.111,0,0.352,0.176,0.479,0.353c0.19,2.049,0.433,4.467,0.624,6.131h0.08c0.496-0.785,0.848-1.394,1.152-2.064
			c0.464-0.992,1.104-2.625,1.104-3.379c0-0.096-0.048-0.144-0.145-0.144l-0.944,0.097c-0.017-0.225-0.032-0.448-0.048-0.672
			c0.801-0.129,1.633-0.306,1.775-0.306c0.112,0,0.498,0.399,0.498,0.513c0,1.088-0.945,3.187-1.569,4.354
			c-0.8,1.473-2.064,3.218-3.313,4.578c-0.752,0.8-1.504,1.36-1.648,1.36c-0.271,0-0.815-0.48-0.848-0.801
			c0.672-0.32,1.185-0.673,1.633-1.041c0.465-0.367,1.023-0.912,1.393-1.439c-0.208-1.328-0.624-4.609-0.848-6.516L139.128,36.821z"
			/>
		<path fill="#CCA33E" d="M150.346,36.708c0-0.08-0.033-0.145-0.097-0.191c-0.176-0.113-0.448-0.209-0.832-0.209
			c-0.257,0-0.625,0.032-0.913,0.192s-0.592,0.479-0.592,0.96c0,0.624,0.4,0.801,1.12,1.12c1.057,0.465,1.681,0.929,1.681,1.841
			c0,0.77-0.384,1.409-1.104,1.811c-0.465,0.271-1.041,0.384-1.969,0.384c-0.625,0-1.297-0.146-1.554-0.288
			c0.032-0.641,0.063-1.312,0.097-1.953c0.225-0.032,0.479-0.032,0.705-0.032L147,41.495c0,0.08,0.031,0.145,0.096,0.176
			c0.209,0.145,0.562,0.225,0.961,0.225c0.385,0,0.801-0.08,1.057-0.24c0.32-0.208,0.496-0.496,0.496-0.977
			c0-0.673-0.465-0.896-1.168-1.217c-0.93-0.4-1.633-0.784-1.633-1.809c0-0.816,0.655-1.473,1.217-1.745
			c0.526-0.257,1.119-0.336,1.744-0.336c0.592,0,1.217,0.159,1.521,0.336c-0.063,0.608-0.128,1.231-0.176,1.809
			c-0.192,0.017-0.464,0.017-0.688,0.032L150.346,36.708z"/>
		<path fill="#CCA33E" d="M157.496,37.924c1.199-1.584,2.24-2.353,3.266-2.368c0.368,0.049,0.864,0.416,1.088,0.896
			c0.08,0.158,0.129,0.384,0.129,0.592c0,1.072-0.305,2.497-0.944,3.617c-0.464,0.881-1.394,1.953-2.736,1.953
			c-0.562,0-1.104-0.176-1.585-0.608c-0.24,1.2-0.592,2.993-0.85,4.21c-0.352,0.016-0.719,0.016-1.088,0.016
			c0.576-2.944,1.328-6.803,1.873-9.668l-1.297,0.064c0-0.24,0-0.465,0-0.673c1.377-0.208,1.89-0.384,1.984-0.384
			c0.098,0,0.354,0.191,0.434,0.353c-0.112,0.496-0.272,1.248-0.434,1.97L157.496,37.924z M160.249,36.548
			c-0.992,0-2.785,2.032-3.073,3.01c-0.062,0.271-0.24,1.185-0.32,1.568c0.354,0.432,0.914,0.704,1.377,0.704
			c0.912,0,1.537-0.736,1.873-1.44c0.465-0.961,0.688-2.16,0.688-3.072C160.794,36.917,160.617,36.548,160.249,36.548z"/>
		<path fill="#CCA33E" d="M163.175,36.661c-0.03-0.225-0.03-0.465-0.03-0.674c1.023-0.159,1.92-0.415,2-0.415
			c0.097,0,0.336,0.224,0.416,0.368c-0.111,0.433-0.256,1.057-0.465,1.983l0.112,0.032c0.944-1.425,1.937-2.385,2.513-2.385
			c0.338,0,0.625,0.128,0.784,0.224c0,0.399-0.353,1.121-0.526,1.218c-0.112-0.049-0.449-0.16-0.656-0.16
			c-0.641,0-2.193,1.76-2.547,3.121c-0.127,0.479-0.432,1.84-0.575,2.48c-0.368,0-0.736,0-1.104,0
			c0.305-1.312,0.944-4.113,1.329-5.923L163.175,36.661z"/>
		<path fill="#CCA33E" d="M169.062,36.661c-0.017-0.24-0.031-0.465-0.031-0.688c1.248-0.178,2.097-0.4,2.225-0.4
			c0.096,0,0.352,0.256,0.432,0.4c-0.367,1.567-1.185,4.945-1.375,5.745c-0.018,0.064,0,0.112,0.062,0.112
			c0.208,0,0.673-0.112,1.201-0.256c0.062,0.224,0.096,0.432,0.128,0.672c-0.656,0.208-1.394,0.354-2.001,0.354
			c-0.096,0-0.465-0.272-0.561-0.498c0.353-1.584,0.863-3.729,1.279-5.521L169.062,36.661z M172.248,33.267
			c0,0.416-0.4,0.832-0.85,0.832c-0.463,0-0.815-0.384-0.815-0.8c0-0.368,0.337-0.815,0.896-0.815
			C172.008,32.483,172.248,32.931,172.248,33.267z"/>
		<path fill="#CCA33E" d="M173.189,36.708c-0.016-0.24-0.031-0.465-0.031-0.688c1.057-0.177,1.938-0.448,2.049-0.448
			c0.098,0,0.336,0.176,0.416,0.336c-0.111,0.433-0.256,1.071-0.432,1.729l0.111,0.049c1.28-1.489,2.576-2.099,3.297-2.113
			c0.416,0.08,0.816,0.367,1.041,0.816c0.08,0.159,0.096,0.353,0.096,0.512c0,0.705-0.543,2.722-1.279,4.803
			c-0.018,0.062,0,0.111,0.062,0.111c0.192,0,0.642-0.111,1.152-0.256c0.049,0.225,0.08,0.447,0.098,0.672
			c-0.608,0.225-1.41,0.369-2.065,0.369c-0.097,0-0.368-0.226-0.448-0.48c0.271-0.816,0.784-2.497,0.992-3.298
			c0.111-0.464,0.305-1.185,0.305-1.616c0-0.32-0.145-0.594-0.496-0.594c-0.992,0-2.832,1.746-3.09,2.675
			c-0.16,0.592-0.624,2.528-0.783,3.169c-0.369,0-0.736,0-1.104,0c0.353-1.439,0.978-4.082,1.377-5.874L173.189,36.708z"/>
		<path fill="#CCA33E" d="M183.527,41.733c0.432,0,1.152-0.127,1.824-0.318c0.031,0.208,0.047,0.464,0.063,0.688
			c-0.881,0.32-1.873,0.498-2.449,0.498c-0.448,0-1.104-0.369-1.312-1.01c-0.032-0.096-0.049-0.191-0.049-0.288
			c0-0.464,0.465-2.417,0.545-2.85c0.127-0.544,0.336-1.456,0.433-1.904c-0.353,0-0.815,0-1.249,0
			c0.048-0.239,0.096-0.496,0.145-0.721c0.399-0.032,0.816-0.063,1.185-0.08c0.049,0,0.112-0.048,0.129-0.11
			c0.128-0.449,0.271-1.024,0.399-1.49c0.385-0.176,0.896-0.271,1.041-0.271c0.031,0,0.047,0.017,0.047,0.063
			c-0.096,0.465-0.256,1.185-0.399,1.809c0.802,0,1.647,0,2.417-0.016c-0.031,0.287-0.096,0.576-0.16,0.815
			c-0.688,0-1.553,0-2.433,0c-0.112,0.448-0.32,1.394-0.433,1.937c-0.16,0.705-0.479,2.146-0.479,2.578
			C182.791,41.526,183.079,41.733,183.527,41.733z"/>
		<path fill="#CCA33E" d="M194.232,40.501c-1.2,1.409-2.418,2.129-3.121,2.146c-0.4-0.049-0.93-0.369-1.186-0.834
			c-0.111-0.176-0.16-0.416-0.16-0.64c0-0.688,0.225-1.633,0.528-2.448c0.496-1.346,1.616-3.153,3.217-3.153
			c0.673,0,1.233,0.271,1.617,0.575h0.08c0.271-1.151,0.608-2.656,0.88-3.856l-1.424,0.063c-0.018-0.239-0.032-0.465-0.032-0.672
			c1.328-0.177,2.209-0.433,2.32-0.433c0.112,0,0.305,0.19,0.417,0.353c-0.271,1.185-2.081,8.916-2.337,10.101
			c-0.017,0.048,0.03,0.096,0.079,0.096c0.111,0,0.496-0.08,0.992-0.256c0.063,0.224,0.111,0.448,0.145,0.656
			c-0.721,0.271-1.376,0.399-1.872,0.399c-0.08,0-0.368-0.209-0.448-0.399c0.049-0.257,0.209-0.849,0.399-1.665L194.232,40.501z
			 M194.536,38.998c0.097-0.386,0.353-1.44,0.448-1.938c-0.353-0.432-0.928-0.623-1.424-0.623c-0.93,0-1.649,1.008-2.049,2.032
			c-0.32,0.816-0.562,1.824-0.562,2.497c0,0.561,0.288,0.752,0.592,0.752C192.439,41.718,194.297,39.813,194.536,38.998z"/>
		<path fill="#CCA33E" d="M201.734,40.55c-1.473,1.633-2.496,2.098-3.023,2.098c-0.354-0.064-0.881-0.385-1.121-0.834
			c-0.096-0.176-0.145-0.383-0.145-0.64c0-0.575,0.191-1.553,0.513-2.401c0.479-1.312,1.601-3.2,3.121-3.2
			c0.608,0,1.151,0.288,1.585,0.784h0.096l0.354-0.85c0.287,0.08,0.592,0.178,0.88,0.271c-0.433,1.44-1.136,4.259-1.488,5.924
			c0,0.048,0.032,0.096,0.08,0.096c0.128,0,0.562-0.111,1.089-0.288c0.062,0.224,0.111,0.448,0.145,0.673
			c-0.672,0.256-1.473,0.416-1.969,0.416c-0.049,0-0.336-0.209-0.416-0.399c0.047-0.272,0.224-0.929,0.399-1.617L201.734,40.55z
			 M199.238,38.373c-0.368,0.864-0.607,1.873-0.607,2.642c0,0.465,0.239,0.704,0.512,0.704c0.752,0,2.545-1.761,2.851-2.577
			c0.096-0.287,0.384-1.439,0.496-1.92c-0.353-0.513-0.849-0.785-1.394-0.785C200.279,36.437,199.605,37.478,199.238,38.373z"/>
		<path fill="#CCA33E" d="M205.189,36.676c-0.017-0.224-0.032-0.448-0.032-0.672c1.217-0.192,1.872-0.433,2.001-0.433
			c0.111,0,0.305,0.176,0.416,0.336c-0.08,0.447-0.208,0.943-0.368,1.633l0.146,0.048c1.217-1.487,2.271-2.001,2.912-2.017
			c0.336,0.048,0.736,0.287,0.961,0.703c0.063,0.113,0.096,0.272,0.096,0.449c0,0.127-0.047,0.495-0.127,0.911l0.111,0.032
			c1.2-1.568,2.272-2.049,2.944-2.049c0.306,0.031,0.815,0.336,1.024,0.801c0.08,0.145,0.111,0.32,0.111,0.479
			c0,0.656-0.512,2.675-1.185,4.804c-0.017,0.048,0,0.096,0.048,0.096c0.191,0,0.593-0.08,1.121-0.239
			c0.048,0.225,0.096,0.447,0.111,0.672c-0.672,0.225-1.36,0.369-2.032,0.369c-0.097,0-0.353-0.258-0.433-0.48
			c0.271-0.833,0.672-2.321,0.863-3.09c0.112-0.432,0.354-1.377,0.354-1.856c0-0.256-0.146-0.544-0.528-0.544
			c-0.88,0-2.577,1.841-2.817,2.785c-0.224,0.896-0.496,2.018-0.752,3.041c-0.353,0-0.721,0-1.072,0
			c0.191-0.801,0.705-2.896,0.896-3.682c0.111-0.465,0.271-1.36,0.271-1.696c0-0.226-0.129-0.496-0.448-0.496
			c-0.944,0-2.593,1.841-2.833,2.785c-0.16,0.606-0.592,2.433-0.752,3.089c-0.354,0-0.721,0-1.072,0
			c0.336-1.439,0.943-4.064,1.344-5.906L205.189,36.676z"/>
		<path fill="#CCA33E" d="M218.936,37.924c1.199-1.584,2.24-2.353,3.266-2.368c0.367,0.049,0.863,0.416,1.088,0.896
			c0.08,0.158,0.128,0.384,0.128,0.592c0,1.072-0.304,2.497-0.944,3.617c-0.464,0.881-1.393,1.953-2.736,1.953
			c-0.561,0-1.104-0.176-1.584-0.608c-0.24,1.2-0.592,2.993-0.85,4.21c-0.352,0.016-0.72,0.016-1.088,0.016
			c0.576-2.944,1.328-6.803,1.872-9.668l-1.296,0.064c0-0.24,0-0.465,0-0.673c1.376-0.208,1.889-0.384,1.984-0.384
			c0.097,0,0.353,0.191,0.433,0.353c-0.112,0.496-0.272,1.248-0.433,1.97L218.936,37.924z M221.688,36.548
			c-0.992,0-2.785,2.032-3.072,3.01c-0.063,0.271-0.24,1.185-0.32,1.568c0.354,0.432,0.913,0.704,1.377,0.704
			c0.912,0,1.537-0.736,1.873-1.44c0.464-0.961,0.688-2.16,0.688-3.072C222.232,36.917,222.057,36.548,221.688,36.548z"/>
	</g>
	<g>
		<path fill="#CCA33E" d="M33.909,3.145c0,2.362,0,4.626,0,7.016c0.394-0.215,0.649-0.354,1.05-0.572
			c0.086,0.75,0.234,1.445,0.209,2.134c-0.009,0.236-0.424,0.501-0.703,0.672c-0.4,0.245-0.551,0.52-0.544,1.014
			c0.057,4.298,0.076,8.596,0.106,12.894c0.024,3.396-0.053,6.798,0.099,10.189c0.201,4.471,0.585,8.932,0.883,13.397
			c0.077,1.156,0.122,2.314,0.19,3.471c0.019,0.324-0.092,0.472-0.434,0.49c-3.109,0.191-6.216,0.437-9.327,0.578
			c-3.332,0.154-6.667,0.271-10.001,0.303c-2.256,0.021-4.514-0.129-6.771-0.211c-1.757-0.062-3.513-0.155-5.271-0.207
			c-1.308-0.039-1.31-0.018-1.294-1.323c0.043-3.537,0.029-7.078,0.145-10.613c0.169-5.172,0.477-10.34,0.641-15.513
			c0.138-4.352,0.156-8.707,0.228-13.062c0.051-3.116,0.108-6.23,0.149-9.347C3.27,3.945,3.448,3.686,3.989,3.67
			c1.837-0.056,3.677-0.085,5.51-0.214c5.074-0.357,10.148-0.04,15.223-0.087c2.576-0.024,5.152-0.147,7.729-0.221
			C32.884,3.134,33.319,3.145,33.909,3.145z M23.825,16.664c-0.018-0.084-0.035-0.169-0.054-0.254
			c-0.354-0.119-0.702-0.271-1.066-0.35c-1.353-0.292-2.519-0.793-3.191-2.147c-0.218-0.438-0.717-0.898-1.176-1.023
			c-1.811-0.495-3.656-0.864-5.559-0.676c-0.275,0.027-0.58,0.109-0.607-0.34c-0.026-0.417,0.25-0.409,0.542-0.453
			c1.441-0.215,2.866-0.103,4.291,0.151c2.556,0.457,1.953-0.042,3.597,2.113c0.533,0.698,1.211,1.091,2.044,1.245
			c1.432,0.265,2.865,0.524,4.304,0.752c0.65,0.103,1.327,0.174,1.863-0.362c1.354-1.352,2.707-2.705,4.047-4.07
			c0.091-0.093,0.11-0.299,0.097-0.446c-0.175-1.809-0.368-3.616-0.541-5.424c-0.044-0.455-0.286-0.601-0.708-0.625
			c-0.777-0.042-1.552-0.142-2.329-0.177c-2.794-0.126-5.59-0.36-8.382-0.321c-3.993,0.056-7.984,0.31-11.975,0.491
			C7.666,4.81,6.312,4.914,4.957,4.987C4.628,5.004,4.442,5.093,4.441,5.474c-0.005,2.459-0.043,4.917-0.036,7.376
			c0.007,2.337,0.172,4.681,0.057,7.011C4.315,22.852,3.924,25.83,3.7,28.818c-0.267,3.564-0.534,7.133-0.681,10.703
			c-0.164,3.98,0.235,7.943,0.601,11.904c0.019,0.201,0.085,0.398,0.145,0.668c0.821-0.535,1.525-0.521,2.23,0.049
			c1.085,0.877,1.359,0.855,2.43-0.045c0.837-0.703,1.422-0.678,2.184,0.096c0.76,0.771,0.946,0.775,1.79,0.062
			c0.656-0.557,1.253-0.535,1.853,0.066c0.849,0.852,1.167,0.848,2.001-0.016c0.625-0.648,1.361-0.729,2.101-0.209
			c0.228,0.157,0.423,0.364,0.641,0.538c0.605,0.488,1.063,0.5,1.68,0.043c0.192-0.143,0.371-0.303,0.556-0.456
			c0.722-0.599,1.319-0.584,2.023,0.041c0.134,0.118,0.292,0.215,0.415,0.344c0.408,0.424,0.865,0.354,1.318,0.121
			c0.245-0.127,0.462-0.312,0.681-0.486c0.701-0.555,1.122-0.564,1.824-0.025c1.12,0.859,1.336,0.857,2.438-0.031
			c0.596-0.479,1.133-0.475,1.739-0.008c0.219,0.168,0.448,0.346,0.703,0.439c0.695,0.254,1.242-0.123,1.241-0.861
			c-0.001-0.838-0.064-1.676-0.075-2.514c-0.047-3.559-0.068-7.117-0.131-10.676c-0.045-2.615-0.144-5.23-0.208-7.847
			c-0.039-1.539-0.1-3.077-0.078-4.614c0.056-3.997,0.152-7.993,0.227-11.989c0.004-0.219-0.047-0.44-0.081-0.731
			c-0.3,0.224-0.509,0.371-0.708,0.53c-0.952,0.758-1.944,1.472-2.832,2.298c-0.492,0.458-0.956,0.813-1.638,0.868
			c-2.247,0.179-4.393,0.717-6.432,1.717c-0.821,0.403-1.351,0.958-1.774,1.759c-0.6,1.136-1.347,2.193-2.026,3.275
			c-0.631-0.354-0.642-0.374-0.371-0.772c0.405-0.594,0.857-1.16,1.217-1.779c0.299-0.513,0.495-1.086,0.776-1.721
			c-1.41,0.361-2.628,0.777-3.879,0.963c-1.11,0.165-1.849,0.727-2.372,1.619c-1.014,1.729-2.806,2.488-4.273,3.627
			c-0.502-0.354-0.287-0.563,0.017-0.82c1.621-1.373,3.462-2.533,4.389-4.585c0.102-0.225,0.493-0.406,0.774-0.45
			c2.464-0.382,4.81-1.181,7.141-2.016C22.158,17.582,22.977,17.081,23.825,16.664z"/>
		<path display="none" fill="#CCA33E" d="M23.825,16.664c-0.849,0.417-1.667,0.917-2.551,1.234
			c-2.331,0.835-4.677,1.634-7.141,2.016c-0.282,0.044-0.673,0.225-0.774,0.45c-0.927,2.052-2.768,3.212-4.389,4.585
			c-0.303,0.257-0.519,0.466-0.017,0.82c1.467-1.14,3.259-1.898,4.273-3.627c0.523-0.893,1.262-1.454,2.372-1.619
			c1.251-0.186,2.469-0.602,3.879-0.963c-0.281,0.635-0.478,1.208-0.776,1.721c-0.36,0.619-0.812,1.186-1.217,1.779
			c-0.271,0.398-0.26,0.418,0.371,0.772c0.68-1.083,1.427-2.14,2.026-3.275c0.424-0.802,0.953-1.356,1.774-1.759
			c2.039-1,4.185-1.539,6.432-1.717c0.682-0.054,1.146-0.41,1.638-0.868c0.888-0.826,1.88-1.54,2.832-2.298
			c0.199-0.159,0.408-0.306,0.708-0.53c0.034,0.292,0.085,0.512,0.081,0.731c-0.074,3.996-0.171,7.992-0.227,11.989
			c-0.021,1.537,0.039,3.075,0.078,4.614c0.064,2.615,0.163,5.23,0.208,7.847c0.062,3.559,0.084,7.117,0.131,10.676
			c0.011,0.838,0.074,1.676,0.075,2.514c0.001,0.738-0.546,1.115-1.241,0.861c-0.255-0.094-0.484-0.271-0.703-0.439
			c-0.606-0.467-1.144-0.471-1.739,0.008c-1.102,0.89-1.317,0.892-2.438,0.031c-0.702-0.539-1.123-0.529-1.824,0.025
			c-0.219,0.174-0.436,0.359-0.681,0.486c-0.453,0.231-0.91,0.303-1.318-0.121c-0.123-0.129-0.281-0.226-0.415-0.344
			c-0.704-0.625-1.302-0.64-2.023-0.041c-0.185,0.153-0.363,0.313-0.556,0.456c-0.616,0.457-1.074,0.445-1.68-0.043
			c-0.218-0.174-0.413-0.381-0.641-0.538c-0.74-0.521-1.476-0.439-2.101,0.209c-0.834,0.862-1.152,0.866-2.001,0.016
			c-0.599-0.603-1.196-0.623-1.853-0.066c-0.844,0.713-1.03,0.707-1.79-0.062c-0.762-0.772-1.347-0.799-2.184-0.096
			c-1.071,0.9-1.344,0.922-2.43,0.045c-0.706-0.569-1.409-0.584-2.23-0.049c-0.06-0.27-0.126-0.467-0.145-0.668
			c-0.366-3.961-0.765-7.924-0.601-11.904c0.147-3.569,0.414-7.139,0.681-10.703c0.224-2.988,0.614-5.966,0.762-8.957
			c0.115-2.331-0.05-4.674-0.057-7.011c-0.007-2.458,0.031-4.917,0.036-7.376C4.44,5.093,4.626,5.005,4.955,4.987
			C6.312,4.914,7.666,4.81,9.021,4.748c3.991-0.182,7.982-0.436,11.975-0.491c2.792-0.039,5.588,0.195,8.382,0.321
			c0.777,0.035,1.552,0.135,2.329,0.177c0.422,0.023,0.664,0.17,0.708,0.625c0.173,1.809,0.366,3.616,0.541,5.424
			c0.014,0.147-0.006,0.353-0.097,0.446c-1.34,1.366-2.693,2.718-4.047,4.07c-0.536,0.536-1.213,0.465-1.863,0.362
			c-1.438-0.228-2.872-0.487-4.304-0.752c-0.833-0.154-1.511-0.547-2.044-1.245c-1.645-2.155-1.041-1.656-3.597-2.113
			c-1.425-0.254-2.85-0.367-4.291-0.151c-0.292,0.044-0.568,0.035-0.542,0.453c0.027,0.449,0.332,0.367,0.607,0.34
			c1.903-0.188,3.748,0.181,5.559,0.676c0.459,0.125,0.958,0.586,1.176,1.023c0.673,1.354,1.839,1.855,3.191,2.147
			c0.364,0.078,0.712,0.231,1.066,0.35C23.79,16.495,23.808,16.58,23.825,16.664z M21.77,29.062
			c-0.048-1.314-1.021-2.133-2.473-2.08c-0.953,0.034-1.713,0.812-1.699,1.74c0.02,1.312,1.066,2.337,2.344,2.296
			C21.018,30.981,21.809,30.136,21.77,29.062z M14.067,28.465c0.809,0.023,1.493-0.66,1.524-1.522
			c0.035-0.974-0.658-1.691-1.667-1.726c-0.861-0.029-1.503,0.565-1.525,1.412C12.373,27.584,13.15,28.439,14.067,28.465z
			 M11.011,13.92c-0.814-0.015-1.46,0.61-1.461,1.415c-0.001,0.743,0.54,1.368,1.203,1.39c0.82,0.028,1.602-0.637,1.61-1.369
			C12.373,14.518,11.824,13.935,11.011,13.92z M26.174,20.172c-0.612-0.012-1.368,0.673-1.394,1.262
			c-0.031,0.727,0.611,1.431,1.318,1.444c0.693,0.013,1.327-0.681,1.356-1.485C27.479,20.726,26.913,20.187,26.174,20.172z
			 M14.695,32.908c0.639,0.016,1.2-0.5,1.231-1.136c0.032-0.651-0.633-1.373-1.292-1.399c-0.728-0.031-1.423,0.526-1.431,1.151
			C13.194,32.16,13.98,32.888,14.695,32.908z M8.987,32.481c0.764,0.013,1.312-0.53,1.326-1.317c0.011-0.603-0.55-1.146-1.208-1.17
			c-0.661-0.025-1.289,0.563-1.307,1.225C7.781,31.841,8.375,32.472,8.987,32.481z M22.977,22.468
			c-0.012-0.729-0.487-1.212-1.188-1.208c-0.743,0.004-1.241,0.509-1.225,1.239c0.017,0.679,0.586,1.163,1.338,1.136
			C22.572,23.611,22.988,23.16,22.977,22.468z M24.698,24.942c-0.597-0.01-1.184,0.488-1.205,1.024
			c-0.021,0.536,0.463,1.067,0.989,1.084c0.59,0.019,1.179-0.529,1.188-1.107C25.681,25.407,25.238,24.951,24.698,24.942z
			 M14.908,15.327c0.323,0.035,0.638-0.157,0.656-0.617c0.018-0.44-0.248-0.696-0.709-0.696c-0.443,0-0.836,0.14-0.838,0.642
			C14.014,15.098,14.338,15.308,14.908,15.327z"/>
		<path fill="#CCA33E" d="M21.77,29.062c0.039,1.076-0.752,1.919-1.827,1.957c-1.278,0.041-2.325-0.984-2.344-2.296
			c-0.014-0.927,0.746-1.706,1.699-1.74C20.748,26.929,21.722,27.748,21.77,29.062z"/>
		<path fill="#CCA33E" d="M14.067,28.465c-0.917-0.026-1.694-0.881-1.669-1.836c0.022-0.847,0.664-1.441,1.525-1.412
			c1.01,0.035,1.703,0.752,1.667,1.726C15.56,27.805,14.876,28.489,14.067,28.465z"/>
		<path fill="#CCA33E" d="M11.011,13.92c0.812,0.015,1.361,0.598,1.352,1.436c-0.008,0.732-0.79,1.397-1.61,1.369
			c-0.664-0.022-1.204-0.647-1.203-1.39C9.551,14.53,10.197,13.905,11.011,13.92z"/>
		<path fill="#CCA33E" d="M26.174,20.172c0.739,0.015,1.305,0.554,1.281,1.222c-0.029,0.804-0.663,1.498-1.356,1.485
			c-0.707-0.014-1.35-0.717-1.318-1.444C24.806,20.846,25.562,20.16,26.174,20.172z"/>
		<path fill="#CCA33E" d="M14.695,32.908c-0.715-0.021-1.501-0.748-1.492-1.384c0.008-0.625,0.703-1.184,1.431-1.151
			c0.659,0.026,1.324,0.748,1.292,1.399C15.896,32.408,15.334,32.923,14.695,32.908z"/>
		<path fill="#CCA33E" d="M8.987,32.481c-0.613-0.01-1.207-0.641-1.189-1.264c0.019-0.66,0.646-1.25,1.307-1.225
			c0.659,0.025,1.219,0.568,1.208,1.17C10.299,31.951,9.751,32.494,8.987,32.481z"/>
		<path fill="#CCA33E" d="M22.977,22.468c0.012,0.692-0.404,1.143-1.075,1.167c-0.752,0.026-1.321-0.458-1.338-1.136
			c-0.017-0.73,0.481-1.234,1.225-1.239C22.489,21.256,22.965,21.739,22.977,22.468z"/>
		<path fill="#CCA33E" d="M24.698,24.942c0.54,0.009,0.982,0.465,0.973,1.001c-0.01,0.578-0.599,1.125-1.188,1.107
			c-0.526-0.017-1.011-0.548-0.989-1.084C23.516,25.43,24.102,24.932,24.698,24.942z"/>
		<path fill="#CCA33E" d="M14.908,15.327c-0.57-0.019-0.894-0.229-0.892-0.671c0.002-0.502,0.396-0.641,0.838-0.642
			c0.462,0,0.728,0.256,0.709,0.696C15.546,15.17,15.231,15.361,14.908,15.327z"/>
	</g>
</g>
</svg>
